<?xml version="1.0" standalone="no"?>
<!DOCTYPE svg PUBLIC "-//W3C//DTD SVG 20010904//EN"
 "http://www.w3.org/TR/2001/REC-SVG-20010904/DTD/svg10.dtd">
<svg version="1.0" xmlns="http://www.w3.org/2000/svg"
 width="1856.000000pt" height="1856.000000pt" viewBox="0 0 1856.000000 1856.000000"
 preserveAspectRatio="xMidYMid meet">
<metadata>
Created by potrace 1.14, written by Peter Selinger 2001-2017
</metadata>
<g transform="translate(0.000000,1856.000000) scale(0.100000,-0.100000)"
fill="#000000" stroke="none">
<path d="M9850 12999 l0 -122 -52 7 c-29 3 -79 10 -111 15 l-58 8 -40 -49
c-32 -37 -47 -48 -70 -48 l-29 0 0 70 c0 97 -14 110 -115 110 -83 0 -92 -5
-139 -80 -15 -25 -33 -38 -59 -44 -29 -8 -36 -13 -31 -25 48 -107 54 -270 16
-367 -45 -112 -170 -267 -250 -308 l-32 -17 0 26 c0 14 9 44 21 67 29 57 28
126 -3 151 -21 17 -35 19 -138 14 -170 -8 -406 -77 -476 -139 l-32 -29 48
-102 c113 -242 109 -267 -42 -267 -76 0 -89 -2 -79 -14 9 -10 9 -20 0 -40 -20
-44 -46 -30 -40 22 1 6 -2 12 -7 12 -10 0 -149 -117 -171 -143 -22 -28 -65
-20 -112 19 -49 41 -91 64 -115 64 -14 0 -16 -8 -10 -56 10 -88 34 -123 111
-162 22 -11 55 -36 73 -55 l33 -34 -148 -6 c-143 -6 -353 -30 -373 -42 -6 -4
-10 -79 -10 -186 0 -152 2 -179 15 -179 26 0 153 -62 159 -77 7 -18 -33 -93
-49 -93 -7 0 -38 9 -70 20 -54 19 -60 19 -83 4 -23 -15 -24 -19 -17 -84 7 -69
7 -69 -19 -76 -22 -5 -50 9 -165 83 -129 85 -139 89 -150 71 -10 -17 -5 -27
38 -76 27 -31 75 -82 105 -112 l56 -54 0 -68 c0 -68 0 -68 -28 -68 -18 0 -49
16 -86 45 -32 25 -62 45 -65 45 -4 0 -17 -13 -29 -30 -54 -73 -112 -74 -112
-2 0 52 22 79 70 87 23 4 40 12 40 20 0 29 -177 165 -214 165 -2 0 -13 -30
-25 -67 -33 -111 -126 -250 -228 -343 -30 -28 -64 -51 -76 -51 -68 -4 -83 9
-162 135 l-55 88 0 334 0 333 -30 16 c-64 33 -79 94 -110 445 -26 297 -54 493
-80 562 -11 31 -36 70 -59 92 -37 36 -43 38 -83 33 -24 -3 -53 -9 -65 -13 -23
-6 -23 -5 -23 90 0 53 -4 96 -8 96 -23 0 -43 -31 -57 -85 -21 -78 -42 -100
-89 -91 -58 11 -83 64 -111 239 -5 30 -10 37 -28 37 -13 0 -33 -7 -45 -16 -29
-20 -96 -119 -133 -197 -27 -57 -29 -71 -29 -172 0 -162 16 -314 50 -481 40
-195 49 -370 27 -549 -29 -234 -30 -256 -13 -353 24 -141 68 -244 130 -309 47
-47 50 -53 29 -53 -35 0 -46 -40 -40 -145 5 -81 10 -98 51 -180 25 -50 49
-112 52 -137 6 -45 6 -46 -24 -53 -43 -9 -61 -33 -73 -101 -14 -81 -33 -108
-69 -101 l-27 6 -36 -137 c-20 -75 -42 -155 -48 -178 -11 -38 -10 -43 13 -75
61 -81 76 -138 120 -459 30 -217 33 -255 32 -485 0 -181 -7 -307 -22 -457 -12
-113 -22 -209 -22 -213 0 -13 -63 4 -83 23 -11 9 -39 58 -62 107 -23 50 -54
104 -69 122 -23 27 -76 53 -110 53 -13 0 1 -134 18 -174 14 -34 55 -54 78 -40
15 9 3 -10 -35 -58 l-30 -37 -28 19 c-55 40 -77 3 -89 -150 -5 -58 -12 -118
-15 -133 l-7 -27 101 0 c59 0 101 -4 101 -10 0 -5 -7 -28 -17 -51 -16 -40 -15
-42 3 -56 10 -8 29 -16 41 -19 12 -3 25 -15 29 -27 5 -16 -4 -30 -47 -66 -131
-111 -159 -158 -167 -288 l-5 -83 44 25 c51 28 91 32 113 9 14 -13 16 -64 16
-398 0 -322 2 -389 15 -420 9 -20 22 -103 30 -184 19 -193 31 -234 75 -257 23
-12 30 -12 49 1 11 8 21 26 21 39 l0 25 218 2 217 3 3 88 3 87 63 0 63 0 7 62
c6 59 24 104 91 230 30 55 47 136 38 178 -3 19 -20 42 -44 61 -52 41 -51 72 5
236 24 70 51 164 61 208 10 44 22 86 28 93 5 7 29 21 53 32 41 18 44 21 44 59
0 38 -3 42 -57 77 -69 43 -83 59 -83 95 0 23 25 59 34 48 1 -2 13 -21 25 -42
24 -39 48 -57 76 -57 15 0 16 7 11 45 -4 25 -18 64 -32 88 -30 53 -30 74 2
154 45 111 31 202 -47 328 -45 72 -69 139 -69 196 0 65 79 260 137 337 28 38
48 40 106 11 84 -42 358 -231 417 -287 l61 -57 -24 -47 -24 -48 24 0 c14 0 56
25 101 60 101 78 148 90 224 56 29 -13 77 -26 106 -29 l52 -6 0 104 0 103 45
17 c55 21 67 17 90 -31 23 -48 15 -140 -18 -204 -30 -58 -102 -96 -210 -113
l-77 -12 20 -40 c46 -92 311 -408 467 -555 304 -288 935 -766 1061 -805 l22
-6 0 153 0 153 68 -68 67 -67 -29 -53 -28 -53 26 -86 c14 -47 26 -92 26 -100
0 -8 10 -24 23 -36 22 -21 32 -22 220 -22 l197 0 0 -96 0 -96 28 6 c15 4 45
27 68 52 l41 45 14 -32 c19 -47 68 -99 93 -99 27 0 141 53 152 72 5 7 16 71
25 141 10 81 22 134 31 143 9 9 51 18 109 25 204 21 322 61 359 122 18 29 20
51 20 254 l0 221 -52 32 c-29 18 -78 56 -109 86 -31 29 -67 56 -80 59 -221 52
-318 79 -339 91 -14 9 -50 42 -80 74 -30 32 -66 61 -79 65 -24 7 -24 7 -18
-48 7 -70 32 -126 90 -202 44 -57 45 -60 24 -67 -74 -22 -163 -1 -213 50 -79
81 -119 183 -135 349 -13 125 -6 114 -90 128 -80 12 -158 97 -250 270 -88 167
-180 243 -314 260 -45 6 -56 13 -116 76 l-65 68 -58 -13 c-63 -15 -109 -43
-114 -70 -3 -13 6 -16 59 -16 l62 0 -7 -57 c-14 -117 -55 -157 -174 -169 -58
-6 -62 -5 -62 13 0 11 7 37 15 56 25 60 20 75 -32 100 -81 38 -88 75 -69 358
5 69 6 138 2 152 -15 60 -81 109 -213 159 -107 39 -159 83 -188 155 -19 48
-32 54 -163 82 -113 25 -176 52 -193 83 -7 12 -12 49 -11 80 4 145 94 261 332
430 73 51 170 149 218 220 18 26 65 116 106 200 41 84 95 182 121 216 72 96
131 134 332 216 230 94 229 94 299 169 85 91 96 117 88 219 -5 66 -3 90 9 114
23 45 107 117 251 218 70 49 137 103 150 120 13 17 60 103 104 192 106 213
111 217 220 243 48 11 113 23 145 27 l59 7 -6 32 c-11 54 7 78 112 153 206
147 254 209 256 333 1 77 -5 71 95 90 39 7 74 21 93 37 l29 25 -60 61 c-34 34
-61 69 -61 78 0 8 21 38 48 66 41 44 54 52 109 62 39 8 69 20 83 35 22 23 40
106 40 188 l0 47 -280 0 -280 0 0 -121z m150 -35 c0 -9 -7 -14 -17 -12 -25 5
-28 28 -4 28 12 0 21 -6 21 -16z m-564 -88 c9 -38 -4 -68 -29 -64 -23 3 -35
43 -23 74 9 24 45 17 52 -10z m381 -155 c34 -51 53 -125 53 -209 l0 -74 -47 7
c-100 15 -132 57 -140 187 -8 107 4 130 66 126 39 -3 49 -8 68 -37z m-331 -86
c15 -37 19 -85 6 -85 -4 0 -25 17 -45 38 -35 36 -36 39 -21 60 22 32 43 27 60
-13z m-39 -260 c39 -33 68 -86 56 -99 -4 -3 -35 -6 -70 -6 l-63 0 0 70 c0 61
2 70 18 70 10 0 37 -16 59 -35z m377 -21 c20 -8 21 -57 1 -74 -22 -18 -35 -3
-35 41 0 39 5 44 34 33z m-343 -275 c18 -18 19 -23 6 -42 -12 -19 -25 -22 -87
-25 -40 -2 -77 1 -82 6 -11 11 15 67 34 75 7 3 34 6 61 6 35 1 52 -4 68 -20z
m-1241 -282 c0 -27 -17 -47 -41 -47 -23 0 -28 28 -11 62 11 23 17 26 33 18 10
-6 19 -21 19 -33z m849 -43 c12 -15 21 -35 21 -45 0 -16 -8 -19 -50 -19 -45 0
-50 2 -50 23 0 28 26 67 45 67 7 0 23 -12 34 -26z m-929 -84 c0 -5 -8 -10 -17
-10 -15 0 -16 2 -3 10 19 12 20 12 20 0z m-155 -55 c0 -33 -3 -40 -20 -40 -15
0 -21 8 -23 28 -5 39 5 59 25 55 14 -2 18 -13 18 -43z m-65 -320 c0 -38 -3
-45 -20 -45 -17 0 -20 7 -20 45 0 38 3 45 20 45 17 0 20 -7 20 -45z m-402 8
c-2 -10 -10 -18 -18 -18 -8 0 -16 8 -18 18 -2 12 3 17 18 17 15 0 20 -5 18
-17z m-1353 -363 c0 -31 -3 -35 -25 -35 -19 0 -26 6 -28 23 -5 36 5 54 30 50
19 -2 23 -9 23 -38z m1935 -151 c0 -18 -2 -19 -15 -9 -8 7 -15 16 -15 21 0 5
7 9 15 9 9 0 15 -9 15 -21z m-473 -67 c21 -13 26 -58 8 -76 -26 -26 -50 -16
-53 23 -5 54 11 74 45 53z m373 -162 c0 -18 -6 -20 -72 -19 l-73 0 45 19 c62
26 100 26 100 0z m-1060 -310 c0 -11 -7 -20 -15 -20 -18 0 -19 12 -3 28 16 16
18 15 18 -8z m295 -65 c0 -25 -4 -30 -25 -30 -16 0 -26 6 -28 18 -6 30 6 49
30 45 18 -2 23 -9 23 -33z m-965 -1535 c0 -11 -7 -20 -15 -20 -8 0 -15 9 -15
20 0 11 7 20 15 20 8 0 15 -9 15 -20z m1630 -355 c10 -12 10 -15 -4 -15 -9 0
-16 7 -16 15 0 8 2 15 4 15 2 0 9 -7 16 -15z m690 -270 c0 -20 -5 -25 -25 -25
-20 0 -25 5 -25 25 0 20 5 25 25 25 20 0 25 -5 25 -25z m-1027 -110 c-4 -15
-36 -12 -41 3 -3 9 3 13 19 10 13 -1 23 -7 22 -13z m1265 -22 c-5 -23 -23 -20
-26 4 -3 18 0 21 13 17 9 -4 15 -13 13 -21z m-2713 -163 c8 -13 -14 -42 -26
-34 -5 3 -9 14 -9 25 0 20 24 26 35 9z m1955 -191 c0 -10 -4 -19 -10 -19 -5 0
-10 12 -10 26 0 14 4 23 10 19 6 -3 10 -15 10 -26z m2020 -788 c0 -14 -41 -41
-62 -41 -13 0 -18 8 -18 25 0 23 4 25 40 25 22 0 40 -4 40 -9z m-610 -81 c0
-36 -2 -40 -25 -40 -22 0 -25 4 -25 40 0 36 3 40 25 40 23 0 25 -4 25 -40z
m-465 -200 c-10 -11 -30 -20 -45 -20 -15 0 -35 9 -45 20 -18 20 -17 20 45 20
62 0 63 0 45 -20z"/>
<path d="M2027 12773 c-21 -20 0 -43 86 -95 50 -31 112 -66 135 -78 60 -30 82
-82 89 -209 4 -74 2 -105 -10 -133 -33 -78 -68 -40 -107 112 -41 162 -97 246
-179 271 -51 15 -66 8 -93 -41 -16 -31 -18 -60 -18 -255 0 -239 -4 -260 -51
-253 -21 3 -25 9 -29 52 -5 49 -5 49 -52 61 -58 14 -70 24 -119 96 -21 32 -50
67 -65 78 -38 30 -88 28 -121 -5 -25 -25 -26 -29 -20 -108 3 -45 7 -89 9 -97
2 -12 -24 -14 -152 -17 l-155 -2 -16 -100 c-22 -132 -47 -181 -219 -425 -228
-321 -321 -489 -363 -653 -19 -77 -22 -113 -22 -307 l0 -220 29 -55 c19 -36
70 -95 151 -175 137 -135 164 -180 173 -281 2 -35 8 -64 13 -64 10 0 49 50 49
64 1 30 32 49 100 61 44 8 73 9 76 3 4 -6 3 -35 0 -66 -8 -69 8 -237 30 -311
52 -179 183 -332 304 -356 65 -12 69 -15 80 -58 18 -72 28 -87 54 -87 25 0 63
38 99 99 l17 30 -45 55 c-48 59 -58 104 -31 141 11 15 22 17 73 12 96 -10 96
-11 90 -81 -3 -34 -9 -86 -13 -117 -6 -50 -4 -58 17 -77 18 -17 35 -22 80 -22
48 0 71 7 134 40 l75 40 -7 -28 c-4 -15 -7 -56 -7 -93 -1 -55 4 -75 33 -132
47 -92 54 -97 104 -69 41 23 56 18 57 -16 0 -33 59 -123 119 -183 72 -71 151
-116 216 -121 38 -3 40 -2 43 29 3 30 6 32 55 38 29 4 81 13 115 21 59 14 67
13 100 -3 64 -31 94 -105 117 -290 8 -60 17 -64 67 -33 18 11 50 20 70 20 36
0 37 -1 48 -52 7 -29 26 -143 44 -253 35 -221 39 -229 97 -181 50 42 138 30
215 -29 51 -39 74 -81 74 -138 0 -66 -33 -96 -143 -133 -121 -40 -153 -75
-226 -245 -65 -153 -108 -222 -151 -244 -63 -32 -75 -22 -115 95 l-23 68 44
43 45 44 -33 7 c-43 10 -122 0 -173 -22 -22 -10 -83 -49 -136 -89 -84 -62 -96
-74 -92 -95 11 -55 -52 -253 -83 -263 -6 -2 -27 60 -49 142 -24 91 -42 144
-49 141 -94 -40 -325 -103 -426 -116 -131 -17 -156 -14 -187 20 -39 44 -53 39
-53 -17 0 -84 -27 -176 -108 -385 -99 -251 -110 -287 -118 -399 -6 -82 -8 -89
-28 -89 -27 0 -46 18 -46 42 0 31 -36 58 -77 58 -64 0 -66 -9 -19 -82 69 -106
68 -186 -1 -244 -35 -30 -37 -35 -41 -100 -2 -47 2 -87 15 -128 l18 -58 130
-44 c72 -25 163 -55 203 -68 49 -16 91 -39 122 -65 27 -23 55 -41 62 -41 7 0
31 20 53 45 l40 46 81 1 c91 1 115 -8 160 -60 26 -31 37 -36 86 -40 l56 -4 13
41 c7 23 17 45 23 50 6 5 47 16 91 24 113 22 139 60 116 167 -11 51 -10 56 10
73 13 10 38 17 66 17 40 0 44 2 32 16 -7 8 -30 24 -51 35 -31 16 -38 25 -38
49 0 54 53 70 173 54 46 -7 47 -8 68 -63 11 -31 19 -68 17 -83 -4 -22 0 -27
24 -32 32 -6 68 5 86 27 7 8 16 47 19 86 5 66 4 74 -21 110 -23 32 -27 47 -24
91 2 41 8 56 24 67 21 13 24 10 75 -73 64 -103 90 -125 158 -132 43 -4 51 -2
51 12 0 44 34 160 53 181 23 26 92 42 115 27 7 -5 21 -39 31 -77 20 -71 39
-95 76 -95 48 0 54 15 102 273 l47 247 28 0 c39 0 76 -20 118 -65 41 -43 99
-75 135 -75 24 0 25 2 25 65 0 58 -2 65 -19 65 -11 0 -32 10 -47 23 l-27 24
65 69 c36 38 73 85 83 104 10 19 38 66 62 103 41 61 44 70 31 85 -16 18 -68
215 -68 256 l0 25 43 -19 c55 -26 98 -25 132 2 37 29 53 71 70 182 17 118 6
216 -35 299 l-28 57 37 0 c26 0 51 9 80 30 46 34 128 139 137 177 13 52 -4
145 -40 217 -43 88 -131 215 -154 223 -226 75 -393 309 -393 548 0 44 4 93 10
108 13 32 8 33 -34 7 l-32 -20 -23 63 c-28 76 -91 204 -117 236 -25 31 -38 23
-59 -42 -9 -28 -19 -56 -22 -60 -2 -5 -51 83 -109 195 -57 111 -111 208 -120
215 -9 7 -82 33 -162 59 -160 51 -172 57 -281 154 -192 170 -264 216 -353 226
-62 7 -109 -8 -66 -21 36 -11 87 -53 104 -85 8 -16 15 -53 16 -82 1 -83 14
-146 38 -179 l22 -29 -31 0 c-79 0 -122 44 -157 164 -30 101 -53 144 -88 160
-41 20 -82 20 -116 2 -27 -14 -27 -14 -18 17 11 40 2 76 -30 111 -27 30 -134
85 -209 107 -87 25 -110 115 -43 166 14 11 13 12 -8 13 -113 1 -239 253 -258
513 -3 48 -10 90 -14 93 -15 9 -59 -44 -59 -69 0 -69 -86 -102 -135 -52 -23
22 -25 32 -25 107 0 104 14 156 45 170 26 11 225 -8 225 -22 0 -4 -7 -13 -15
-20 -19 -15 -3 -40 26 -40 24 0 49 50 106 205 55 152 78 186 145 219 66 31
117 39 449 71 145 13 323 31 394 39 275 31 281 31 308 4 18 -18 26 -40 32 -86
9 -81 37 -121 180 -261 126 -123 132 -126 196 -80 37 26 74 24 144 -10 67 -31
214 -138 237 -170 15 -21 15 -20 21 24 8 56 -4 90 -50 137 -26 27 -36 47 -40
80 -9 77 22 115 154 192 57 34 113 86 113 107 0 5 -11 9 -25 9 -38 0 -69 38
-95 114 -25 77 -50 98 -137 116 -56 12 -66 27 -39 63 10 12 28 17 67 17 66 0
116 -24 146 -71 50 -76 53 -79 88 -79 31 0 35 3 44 38 21 75 38 185 34 206 -3
11 -36 50 -73 86 l-67 65 -6 120 c-7 130 -25 216 -60 279 -25 45 -78 86 -112
86 -27 0 -146 -83 -204 -143 l-44 -46 -65 65 c-66 65 -178 131 -205 121 -10
-4 -16 -30 -19 -93 -4 -80 -7 -89 -32 -111 -73 -63 -141 22 -87 111 44 72 35
137 -24 161 -62 27 -65 24 -65 -62 -1 -71 -3 -80 -25 -96 -23 -17 -26 -17 -50
-1 -14 9 -27 27 -30 40 -3 13 -7 35 -10 48 -6 31 -51 49 -99 41 -26 -5 -48
-20 -74 -50 l-37 -43 -126 63 -126 64 -44 -110 -44 -109 -67 0 c-48 0 -68 4
-68 13 0 6 -6 53 -14 102 -15 104 -45 171 -82 185 -28 11 -357 14 -367 3z
m1273 -323 c15 -28 -4 -62 -33 -58 -22 3 -34 35 -23 64 8 21 44 17 56 -6z
m-431 -34 c21 -22 6 -77 -32 -113 -37 -36 -105 -83 -120 -83 -10 0 -2 90 14
152 16 61 95 86 138 44z m769 -112 c3 -31 -18 -52 -39 -38 -11 6 -12 58 -2 68
16 16 38 -1 41 -30z m192 -304 c16 -31 12 -40 -20 -40 -28 0 -30 2 -30 40 0
37 2 40 20 30 11 -6 24 -19 30 -30z m-2160 -45 c0 -28 -4 -35 -20 -35 -24 0
-26 18 -4 48 21 30 24 28 24 -13z m500 -15 c0 -5 -5 -12 -11 -16 -14 -8 -33
11 -25 25 7 11 36 4 36 -9z m-255 -110 c0 -28 -4 -36 -21 -38 -24 -3 -36 23
-27 59 4 14 12 19 27 17 17 -2 21 -10 21 -38z m15 -280 c0 -17 -7 -20 -40 -20
-33 0 -40 3 -40 20 0 17 7 20 40 20 33 0 40 -3 40 -20z m-80 -199 l0 -50 -31
9 c-36 11 -58 36 -59 68 0 20 5 22 45 22 l45 0 0 -49z m-962 -35 c4 -32 -10
-46 -39 -39 -13 4 -19 14 -19 32 0 34 8 43 35 39 14 -2 21 -12 23 -32z m442
-541 c8 -10 14 -46 14 -94 1 -64 -3 -83 -18 -100 -27 -29 -90 -44 -156 -37
-61 7 -95 25 -102 54 -5 17 1 21 36 26 68 11 130 35 166 65 28 23 34 35 33 65
-1 39 7 45 27 21z m244 -41 c13 -5 16 -25 16 -118 -1 -211 -29 -323 -99 -390
l-29 -28 -7 68 c-13 132 -37 179 -96 191 -45 9 -34 30 24 47 96 28 167 111
167 196 0 43 0 43 24 34z m-324 -394 c0 -14 -7 -20 -23 -20 -13 0 -32 9 -42
20 -18 20 -17 20 23 20 35 0 42 -3 42 -20z m223 -544 c6 -16 -16 -40 -26 -29
-4 3 -7 15 -7 25 0 21 25 24 33 4z m575 -67 c4 -34 -22 -57 -43 -39 -18 15
-19 42 -3 58 19 19 43 10 46 -19z m860 -5 c2 -22 -2 -33 -14 -38 -34 -13 -59
35 -32 62 21 21 43 9 46 -24z m-1419 -62 c21 -39 -15 -86 -45 -61 -14 12 -19
60 -7 72 13 13 42 7 52 -11z m271 -12 c0 -11 -7 -20 -15 -20 -13 0 -14 4 -5
20 6 11 13 20 15 20 3 0 5 -9 5 -20z m1195 0 c18 -20 17 -20 -8 -20 -20 0 -27
5 -27 20 0 11 4 20 8 20 5 0 17 -9 27 -20z m325 -60 c43 -23 56 -149 21 -199
-23 -31 -76 -61 -111 -61 -22 0 -23 2 -17 78 6 76 27 152 48 179 14 16 33 17
59 3z m-1195 -132 c-8 -59 -34 -113 -55 -113 -9 0 -21 23 -32 58 -25 82 -12
101 70 106 23 1 24 -1 17 -51z m1371 27 c8 -20 -4 -65 -16 -65 -6 0 -10 18
-10 40 0 40 15 54 26 25z m-410 -101 c8 -31 -6 -47 -37 -42 -43 6 -38 68 5 68
19 0 27 -7 32 -26z m-256 -29 c0 -8 -9 -15 -20 -15 -11 0 -20 7 -20 15 0 8 9
15 20 15 11 0 20 -7 20 -15z m-140 -34 c0 -10 -22 -31 -32 -31 -4 0 -8 11 -8
24 0 19 4 23 20 19 11 -3 20 -8 20 -12z m531 -152 c9 -13 20 -39 23 -56 5 -32
4 -33 -29 -33 l-35 0 0 61 c0 66 10 72 41 28z m-181 -18 c0 -5 -7 -14 -16 -21
-13 -11 -19 -10 -37 8 l-21 22 37 0 c20 0 37 -4 37 -9z m-674 -42 c14 -29 14
-29 -16 -29 -28 0 -30 3 -30 35 0 27 3 33 15 28 9 -3 22 -18 31 -34z m1374
-59 c0 -36 -16 -39 -54 -9 -36 29 -33 39 14 39 38 0 40 -2 40 -30z m-176 -88
c2 -4 1 -14 -4 -22 -7 -11 -12 -12 -21 -3 -6 6 -8 16 -5 22 8 13 23 14 30 3z
m-464 -31 c0 -11 -11 -32 -24 -47 l-23 -28 -62 19 c-62 18 -73 26 -84 58 -6
15 3 17 93 17 92 0 100 -1 100 -19z m590 -131 c0 -105 -1 -110 -19 -101 -39
21 -68 140 -43 177 8 12 43 33 55 34 4 0 7 -50 7 -110z m205 40 c18 -19 17
-20 -3 -20 -15 0 -22 6 -22 20 0 11 2 20 3 20 2 0 12 -9 22 -20z m-596 -92 c1
-10 -6 -18 -14 -18 -12 0 -15 12 -14 53 l1 52 13 -35 c7 -19 14 -43 14 -52z
m-199 27 c0 -43 -1 -45 -30 -45 -16 0 -30 3 -30 8 0 9 49 82 55 82 3 0 5 -20
5 -45z m870 -77 c0 -7 -9 -31 -19 -54 -21 -46 -92 -97 -167 -120 -72 -22 -94
-19 -94 11 0 45 27 93 67 119 64 43 213 73 213 44z m-411 -232 c10 -12 10 -28
-4 -81 -9 -36 -13 -70 -10 -75 11 -18 117 -12 155 9 l35 18 16 -38 c14 -31 25
-40 61 -50 24 -6 54 -14 67 -18 35 -10 50 -37 31 -55 -16 -15 -193 -46 -264
-46 -96 0 -155 81 -163 224 -3 46 -3 100 1 120 7 36 7 36 35 22 15 -8 33 -22
40 -30z m706 -271 c0 -10 -6 -20 -12 -22 -8 -3 -13 5 -13 22 0 17 5 25 13 23
6 -3 12 -13 12 -23z m53 -164 c8 -5 12 -21 10 -37 -2 -23 -8 -29 -28 -29 -19
0 -26 6 -28 23 -7 45 14 64 46 43z m-358 -206 c0 -41 -2 -45 -25 -45 -23 0
-25 4 -25 45 0 41 2 45 25 45 23 0 25 -4 25 -45z m300 -23 c0 -11 -9 -27 -20
-37 -20 -18 -20 -17 -20 18 0 30 4 37 20 37 13 0 20 -7 20 -18z m40 -292 c0
-12 -11 -32 -25 -45 -20 -21 -34 -25 -81 -25 -66 0 -64 9 14 60 54 36 92 40
92 10z m-705 -30 c0 -31 -3 -35 -25 -35 -19 0 -26 6 -28 23 -5 36 5 54 30 50
19 -2 23 -9 23 -38z m-60 -145 c0 -10 -6 -20 -12 -22 -8 -3 -13 5 -13 22 0 17
5 25 13 23 6 -3 12 -13 12 -23z m-1175 -546 c23 -72 40 -133 37 -135 -2 -2
-70 15 -150 38 -142 41 -146 43 -134 63 10 15 190 161 204 164 1 1 21 -58 43
-130z m585 -399 c-20 -22 -31 -20 -22 5 4 8 14 15 23 15 16 0 16 -2 -1 -20z
m301 12 c6 -4 13 -15 17 -24 6 -16 -1 -18 -60 -18 -65 0 -66 0 -49 19 10 11
30 22 45 24 14 2 28 5 31 5 3 1 10 -2 16 -6z m-1483 -238 c9 -10 -4 -34 -18
-34 -17 0 -28 17 -20 30 7 11 28 13 38 4z m297 -105 c7 -16 9 -41 6 -55 -6
-24 -9 -25 -21 -13 -8 8 -18 36 -21 62 -6 40 -4 47 9 42 8 -4 21 -20 27 -36z
m-29 -199 c46 -38 101 -91 123 -117 l38 -48 -48 -3 c-95 -7 -248 38 -321 94
-90 68 -48 140 83 143 36 1 50 -7 125 -69z m-401 -35 c0 -8 -9 -15 -20 -15
-11 0 -20 7 -20 15 0 8 9 15 20 15 11 0 20 -7 20 -15z m245 -155 c0 -31 -3
-35 -27 -38 -27 -3 -28 -1 -28 38 0 39 1 41 28 38 24 -3 27 -7 27 -38z"/>
<path d="M16079 12311 c-31 -32 -70 -95 -118 -188 -70 -137 -74 -142 -182
-243 -61 -56 -117 -113 -125 -125 -22 -34 -64 -245 -64 -322 0 -36 14 -177 31
-312 29 -231 34 -359 14 -391 -3 -6 -33 -10 -66 -10 l-59 0 0 90 0 90 -30 0
c-28 0 -30 -3 -30 -35 0 -18 -5 -56 -11 -83 -14 -68 -49 -99 -130 -116 -58
-12 -65 -15 -72 -43 -11 -37 13 -127 43 -166 11 -14 33 -28 49 -32 33 -7 57 3
164 72 70 45 71 45 87 25 9 -11 38 -78 65 -149 68 -182 126 -303 169 -350 l36
-40 0 -262 0 -261 -35 0 c-42 0 -81 18 -114 54 -13 14 -40 28 -60 32 -87 14
-89 15 -100 46 -6 17 -11 48 -11 68 0 49 -32 90 -70 90 -28 0 -158 44 -173 59
-4 4 1 31 12 60 24 59 39 161 24 161 -5 0 -32 -7 -61 -15 -174 -52 -288 -345
-362 -938 l-13 -97 -92 -139 c-102 -153 -120 -187 -195 -376 -108 -272 -239
-504 -312 -552 -38 -24 -88 -37 -104 -25 -32 21 -102 250 -149 487 -92 462
-144 941 -145 1316 l0 196 -39 26 c-50 33 -84 104 -107 217 -14 71 -16 123
-11 319 l5 233 -71 72 c-75 75 -129 155 -154 228 -19 55 -18 186 2 309 19 121
19 268 0 344 -9 33 -63 156 -120 275 -117 243 -134 288 -142 377 -6 66 -12 74
-34 47 -32 -38 -69 -47 -175 -41 -75 5 -104 3 -112 -6 -5 -6 -17 -45 -27 -85
l-18 -74 -56 8 c-70 9 -100 7 -117 -7 -16 -13 -34 -72 -34 -111 l0 -28 95 0
c129 0 167 -19 141 -71 -25 -51 -105 -83 -239 -96 l-57 -6 6 -36 c3 -20 15
-65 26 -101 12 -40 21 -106 24 -170 l4 -105 -47 93 c-37 71 -52 92 -68 92 -51
0 -129 -130 -192 -319 -48 -142 -53 -268 -24 -533 12 -103 21 -223 21 -267 0
-74 -2 -81 -20 -81 -21 0 -22 2 -44 122 -18 93 -59 180 -81 171 -41 -15 -94
-187 -165 -528 -50 -245 -69 -378 -85 -605 -9 -118 -22 -275 -30 -348 -19
-168 -19 -217 0 -345 24 -157 45 -419 38 -479 -3 -29 -28 -110 -56 -180 l-50
-128 26 -88 c40 -131 41 -128 -45 -136 -66 -6 -74 -5 -107 19 -43 30 -41 33
-67 -116 -16 -89 -18 -153 -15 -441 l2 -338 -95 0 -96 0 0 -48 c0 -74 -31
-179 -110 -377 -135 -336 -150 -391 -150 -540 0 -187 27 -293 82 -324 24 -14
28 -12 79 28 l53 42 14 -68 c24 -120 74 -184 242 -309 52 -39 105 -81 118 -93
29 -28 69 -24 94 9 12 17 24 63 34 125 19 128 29 159 63 188 l28 23 -34 23
c-62 40 -75 110 -41 221 5 19 74 168 153 330 149 307 180 382 190 465 5 42 2
56 -17 84 -44 65 -48 76 -48 132 0 62 9 77 102 170 57 58 76 104 56 142 -5 10
-36 30 -69 44 -70 30 -89 58 -89 131 0 98 23 123 153 172 67 25 107 70 107
120 0 34 48 425 76 610 8 58 26 140 40 182 l25 77 47 7 c103 16 152 10 267
-34 60 -23 113 -46 118 -51 5 -5 -49 -12 -122 -16 -72 -4 -131 -9 -131 -13 0
-3 17 -30 38 -60 l37 -55 -3 -155 c-1 -86 -5 -158 -8 -161 -3 -3 -44 5 -92 17
-109 28 -115 28 -107 0 18 -58 74 -91 299 -175 192 -72 216 -87 216 -139 0
-43 -10 -50 -188 -117 -154 -59 -182 -77 -182 -114 0 -52 29 -74 115 -88 22
-4 58 -17 80 -30 34 -19 60 -24 178 -30 108 -5 137 -10 137 -21 0 -8 -25 -54
-56 -102 -89 -137 -90 -141 -54 -213 17 -33 50 -90 74 -128 63 -98 83 -148
100 -260 9 -56 21 -112 26 -126 14 -36 12 -91 -2 -102 -7 -5 -38 -17 -69 -26
-31 -10 -62 -24 -69 -32 -12 -14 -10 -118 2 -130 3 -3 30 10 60 28 120 72 349
148 398 132 11 -3 61 -52 111 -108 88 -99 129 -160 129 -192 0 -10 10 -15 34
-15 53 0 83 15 154 80 103 95 151 99 237 19 25 -23 47 -40 49 -38 2 2 14 49
26 104 67 297 184 511 313 574 44 21 124 27 177 12 25 -7 26 -4 89 173 88 250
122 371 122 438 1 65 -9 88 -59 140 -29 31 -36 46 -40 91 -4 49 0 60 52 157
138 258 160 309 164 382 5 83 -1 91 -93 137 -77 39 -105 71 -105 118 l0 35 63
-5 c42 -3 113 5 223 25 l160 30 -9 46 c-12 55 -2 136 18 156 8 8 37 17 65 21
58 8 69 20 96 107 10 32 28 68 41 80 l23 22 -42 21 c-47 24 -75 68 -84 135
l-6 45 83 44 c45 24 99 59 120 78 l37 33 12 -52 c36 -153 146 -392 210 -454
l39 -38 -6 -211 c-8 -301 15 -630 63 -870 24 -121 61 -246 117 -393 46 -122
54 -137 98 -174 78 -66 87 -122 39 -258 -17 -46 -30 -98 -30 -115 0 -43 33
-91 79 -115 53 -27 79 -56 92 -103 14 -54 -1 -93 -58 -143 -46 -40 -47 -43
-51 -107 -5 -81 3 -96 86 -161 62 -49 97 -102 126 -192 29 -90 18 -88 211 -45
94 21 205 46 247 55 76 17 78 18 97 59 10 23 34 57 53 75 l35 33 182 -75 c99
-42 187 -76 195 -76 22 0 67 41 81 74 15 34 5 60 -62 165 -25 39 -42 84 -59
160 -34 149 -34 146 34 180 84 42 103 69 89 122 -8 31 -33 49 -117 83 -84 34
-100 50 -100 99 0 35 6 46 59 96 68 65 78 98 62 201 -18 111 -38 162 -154 393
-62 123 -121 248 -130 277 -27 83 -40 182 -33 243 7 52 9 56 57 85 l49 31 0
186 c0 184 0 187 25 219 l25 33 -20 49 c-12 26 -44 82 -72 123 -74 109 -97
166 -105 258 -7 92 4 123 43 123 33 0 22 17 -17 25 -43 10 -110 79 -143 149
-51 107 -70 287 -45 421 7 37 7 60 1 64 -18 11 -92 115 -92 129 0 8 23 43 51
79 l51 65 -4 241 c-4 228 -6 247 -30 320 l-26 77 27 0 c15 0 36 7 48 15 23 16
53 93 53 137 0 23 -4 28 -24 28 -68 0 -194 -26 -301 -61 -109 -36 -268 -69
-336 -69 -15 0 -37 8 -49 18 l-23 19 12 144 c7 79 15 146 17 148 2 2 19 -4 38
-14 l34 -18 78 71 c43 40 81 72 85 72 19 0 66 -221 56 -261 -3 -13 16 0 54 36
53 48 71 58 158 85 126 39 136 49 128 137 -8 87 -62 304 -126 508 -28 88 -54
175 -57 193 -5 27 -18 41 -63 70 -92 59 -358 192 -384 192 -21 0 -30 -12 -62
-87 -53 -123 -114 -243 -124 -243 -4 0 -24 24 -43 53 -30 44 -42 83 -83 262
-27 116 -53 216 -58 223 -5 6 -23 12 -40 12 -24 0 -42 -11 -78 -49z m618 -676
c40 -17 54 -43 62 -117 l7 -59 -60 7 c-98 10 -193 31 -221 50 -31 20 -51 55
-60 108 l-8 38 124 -7 c68 -4 138 -13 156 -20z m-4108 -410 c17 -8 35 -30 45
-55 26 -66 24 -70 -44 -70 l-60 0 0 70 c0 77 6 83 59 55z m119 -345 c-15 -23
-28 -26 -28 -7 0 17 10 27 27 27 11 0 11 -4 1 -20z m-125 -44 c5 -15 6 -30 3
-33 -11 -12 -56 40 -56 65 0 23 1 24 22 10 12 -8 26 -27 31 -42z m907 -152 c0
-115 0 -115 -22 -108 -51 15 -88 70 -88 131 0 21 4 44 9 51 7 12 72 40 94 42
4 0 7 -52 7 -116z m3400 -154 l0 -50 -27 11 c-38 14 -73 48 -73 71 0 15 8 18
50 18 l50 0 0 -50z m-75 -211 c0 -50 -3 -64 -15 -64 -11 0 -16 14 -18 54 -4
61 3 84 21 78 8 -2 12 -25 12 -68z m-165 -131 l-1 -53 -24 30 -24 29 21 23
c12 13 23 23 25 23 2 0 3 -24 3 -52z m338 -141 c4 -37 -15 -59 -47 -55 -20 2
-27 9 -29 31 -5 46 4 59 40 55 28 -2 34 -8 36 -31z m-4308 -297 c0 -15 -7 -20
-25 -20 -18 0 -25 5 -25 20 0 15 7 20 25 20 18 0 25 -5 25 -20z m0 -225 c0
-14 -2 -25 -4 -25 -2 0 -11 11 -20 25 -16 24 -16 25 4 25 15 0 20 -7 20 -25z
m140 -345 c23 -151 44 -286 47 -300 5 -22 -1 -18 -47 25 -58 56 -140 171 -175
247 l-23 50 18 64 c25 85 60 161 95 203 l29 34 7 -24 c5 -13 26 -148 49 -299z
m920 284 c0 -27 -14 -25 -30 7 -9 16 -7 19 10 19 15 0 20 -7 20 -26z m1915
-36 c-12 -114 -31 -148 -83 -148 -15 0 -22 9 -27 37 -4 21 -13 56 -20 78 -7
22 -16 52 -19 68 l-6 27 81 0 81 0 -7 -62z m1573 -352 c-2 -25 -8 -32 -30 -34
-49 -6 -61 60 -14 78 29 11 48 -7 44 -44z m-3510 -19 l22 -24 -26 -27 c-25
-25 -69 -44 -79 -34 -8 8 14 70 31 89 22 24 26 24 52 -4z m1762 -52 l23 -25
-53 0 -53 0 23 25 c13 14 26 25 30 25 4 0 17 -11 30 -25z m-2697 -232 c63 -82
114 -149 113 -149 -1 -2 -259 -41 -305 -47 -20 -3 -61 70 -61 107 0 39 108
236 129 236 5 0 61 -66 124 -147z m3673 -44 c10 -17 -23 -46 -37 -32 -7 7 -9
19 -6 27 7 18 33 21 43 5z m-1641 -58 l-27 -26 23 45 c17 34 24 40 27 26 2
-11 -7 -29 -23 -45z m463 7 c13 -13 16 -67 4 -84 -11 -17 -35 -22 -59 -13 -18
7 -23 16 -23 47 0 43 14 62 45 62 12 0 26 -5 33 -12z m96 -13 c-9 -14 -18 -25
-20 -25 -2 0 -4 11 -4 25 0 18 5 25 20 25 20 0 20 -1 4 -25z m-1684 -107 c0
-11 -7 -18 -20 -18 -20 0 -42 52 -32 78 6 18 51 -35 52 -60z m2724 -43 c16
-16 36 -76 36 -107 0 -15 -9 -18 -50 -18 l-50 0 0 70 c0 67 1 70 24 70 14 0
31 -7 40 -15z m-2924 -30 c0 -17 -43 -86 -62 -99 -40 -28 -48 -21 -48 44 l0
60 55 0 c30 0 55 -2 55 -5z m3872 -169 c19 -14 48 -75 48 -101 0 -20 -35 -19
-85 4 -47 21 -70 46 -79 84 -6 27 -6 27 46 27 29 0 61 -7 70 -14z m-2730 -120
c22 -32 -1 -66 -44 -66 -21 0 -32 7 -40 26 -11 23 -10 29 11 45 24 20 59 17
73 -5z m-1484 -62 c157 -77 351 -270 413 -410 41 -92 -11 -113 -103 -43 -109
85 -468 459 -468 488 0 15 104 -8 158 -35z m1627 -599 c27 -58 -5 -125 -59
-125 -13 0 -16 14 -16 80 l0 80 29 0 c23 0 32 -7 46 -35z m-1785 -30 c0 -14
-1 -25 -3 -25 -2 0 -14 11 -27 25 l-23 25 26 0 c22 0 27 -5 27 -25z m2070
-289 c0 -16 -18 -31 -27 -22 -8 8 5 36 17 36 5 0 10 -6 10 -14z m2476 -3 c17
-17 17 -18 -9 -21 -28 -4 -67 13 -67 28 0 17 58 11 76 -7z m-3954 -223 c91
-167 111 -252 58 -258 -32 -4 -110 37 -206 108 -61 46 -74 60 -74 83 0 44 24
80 97 145 l68 61 5 -27 c3 -15 26 -65 52 -112z m1306 -42 c-3 -7 -13 -15 -24
-17 -16 -3 -17 -1 -5 13 16 19 34 21 29 4z m-1088 -353 c0 -21 -5 -25 -30 -25
-25 0 -30 4 -30 25 0 21 5 25 30 25 25 0 30 -4 30 -25z"/>
</g>
</svg>
